<svg xmlns="http://www.w3.org/2000/svg" xmlns:xlink="http://www.w3.org/1999/xlink" width="86" height="87" viewBox="0 0 86 87">
    <defs>
        <path id="a" d="M0 .275h85.725V86H0z"/>
        <path id="c" d="M.362.275h42.863V86H.362z"/>
    </defs>
    <g fill="none" fill-rule="evenodd">
        <g transform="translate(0 .225)">
            <mask id="b" fill="#fff">
                <use xlink:href="#a"/>
            </mask>
            <path fill="#F96500" d="M69.445 69.72c-7.1 7.1-16.541 11.01-26.583 11.01-10.041 0-19.483-3.91-26.583-11.01C9.178 62.62 5.268 53.18 5.268 43.137c0-10.042 3.91-19.482 11.011-26.583 7.1-7.1 16.542-11.01 26.583-11.01 10.041 0 19.483 3.91 26.583 11.01 7.1 7.101 11.012 16.541 11.012 26.583 0 10.042-3.911 19.483-11.011 26.583m3.725-56.89C65.075 4.733 54.31.274 42.862.274 31.413.275 20.65 4.734 12.554 12.83 4.459 20.925 0 31.69 0 43.137c0 11.45 4.458 22.213 12.555 30.309C20.65 81.542 31.413 86 42.861 86c11.449 0 22.213-4.458 30.309-12.554 8.095-8.096 12.554-18.86 12.554-30.309 0-11.448-4.459-22.212-12.554-30.308" mask="url(#b)"/>
        </g>
        <path fill="#F96500" d="M42.886 45.885h-.048a43.448 43.448 0 0 1-6.252-.325c1.605-4.173 3.71-7.965 6.276-11.303 2.566 3.338 4.671 7.13 6.275 11.303a43.43 43.43 0 0 1-6.25.325zm24.007-15.194l-4.78 2.798.06.148c1.318 3.288 1.248 6 1.068 7.402a40.442 40.442 0 0 1-8.613 3.44c-1.951-5.357-4.667-10.202-8.084-14.43a40.948 40.948 0 0 1 7.136-5.558c.499.209 1.133.518 1.847.964 1.584.988 2.996 2.294 4.2 3.878l.138.182 4.766-2.791-.286-.389c-4.486-6.123-10.126-7.477-10.364-7.53l-1.052-.243-.935.54a46.082 46.082 0 0 0-9.132 6.903 46.101 46.101 0 0 0-9.13-6.903l-.937-.54-1.052.242c-.238.054-5.877 1.41-10.365 7.531l-.289.394 4.766 2.791.142-.187c1.204-1.584 2.616-2.89 4.2-3.878a12.96 12.96 0 0 1 1.847-.964 40.958 40.958 0 0 1 7.136 5.559c-3.417 4.227-6.133 9.072-8.084 14.428a40.474 40.474 0 0 1-8.613-3.439c-.18-1.403-.25-4.114 1.068-7.402l.057-.142-4.778-2.798-.2.472c-1.199 2.824-1.78 5.724-1.73 8.62.04 2.246.465 3.682.512 3.836l.317 1.033.935.54a46.145 46.145 0 0 0 10.806 4.53c-1.649 6.397-1.673 11.076-1.674 11.284l-.001 1.08.737.793c.164.176 4.1 4.328 11.55 5.192l.498.058v-5.532l-.192-.026c-1.926-.259-3.716-.824-5.323-1.678a13.037 13.037 0 0 1-1.718-1.088c.118-1.686.47-4.937 1.528-8.94 2.6.39 5.282.566 7.987.523a48.754 48.754 0 0 0 7.988-.523c1.057 4.004 1.41 7.254 1.527 8.94-.424.32-.996.704-1.718 1.088-1.606.854-3.397 1.42-5.323 1.678l-.19.026v5.532l.496-.058c7.45-.864 11.387-5.016 11.55-5.192l.737-.792-.001-1.082c0-.208-.026-4.892-1.674-11.283a46.182 46.182 0 0 0 10.806-4.53l.935-.54.317-1.03c.047-.158.471-1.595.511-3.84.052-2.895-.53-5.795-1.728-8.619l-.202-.478z"/>
        <g transform="translate(42.5 .225)">
            <mask id="d" fill="#fff">
                <use xlink:href="#c"/>
            </mask>
            <path fill="#FF9100" d="M30.67 12.83C22.576 4.734 11.813.275.363.275v5.269c10.042 0 19.483 3.91 26.584 11.01 7.1 7.102 11.011 16.542 11.011 26.584 0 10.042-3.91 19.483-11.011 26.583-7.1 7.1-16.542 11.011-26.584 11.011V86c11.45 0 22.213-4.458 30.309-12.554 8.096-8.095 12.554-18.86 12.554-30.308 0-11.45-4.458-22.213-12.554-30.308" mask="url(#d)"/>
        </g>
        <path fill="#FF9100" d="M50.85 50.871c1.057 4.004 1.41 7.255 1.528 8.94-.425.32-.997.704-1.72 1.089-1.605.854-3.396 1.418-5.32 1.677l-.193.026v5.532l.497-.057c7.45-.865 11.387-5.017 11.551-5.193l.736-.792v-1.082c-.001-.208-.027-4.892-1.674-11.284a46.059 46.059 0 0 0 10.805-4.529l.936-.54.316-1.03c.048-.157.472-1.595.512-3.84.05-2.895-.53-5.794-1.73-8.618l-.201-.479-4.78 2.799.06.148c1.318 3.286 1.249 5.998 1.068 7.402a40.47 40.47 0 0 1-8.612 3.438c-1.953-5.356-4.667-10.201-8.084-14.428a41.011 41.011 0 0 1 7.135-5.56c.498.21 1.134.519 1.848.965 1.583.989 2.996 2.293 4.2 3.879l.137.181 4.766-2.79-.285-.39c-4.487-6.123-10.127-7.476-10.364-7.531l-1.053-.242-.935.54a46.098 46.098 0 0 0-9.132 6.903v8.252c2.566 3.339 4.671 7.13 6.276 11.303a43.15 43.15 0 0 1-6.252.325h-.024v5.51a48.807 48.807 0 0 0 7.988-.524"/>
    </g>
</svg>
